<svg width="316" height="57" viewBox="0 0 316 57" fill="none" xmlns="http://www.w3.org/2000/svg">
<path d="M108.12 48.24C106.333 48.24 104.853 47.9333 103.68 47.32C102.533 46.7067 101.68 45.92 101.12 44.96C100.56 44 100.28 43.0133 100.28 42C100.28 41.0133 100.52 40.08 101 39.2C101.48 38.2933 102.16 37.5467 103.04 36.96C103.947 36.3733 105.013 36.08 106.24 36.08C106.213 36.32 106.2 36.5467 106.2 36.76C106.2 36.9467 106.2 37.04 106.2 37.04C106.2 38.8267 106.373 40.24 106.72 41.28C107.067 42.2933 107.507 43.0267 108.04 43.48C108.573 43.9067 109.12 44.12 109.68 44.12C110.533 44.12 111.293 43.7867 111.96 43.12C112.627 42.4267 112.96 41.6267 112.96 40.72C112.96 39.7067 112.52 38.8133 111.64 38.04C110.787 37.2667 109.693 36.4133 108.36 35.48C107.613 34.92 106.813 34.2933 105.96 33.6C105.133 32.88 104.427 32.04 103.84 31.08C103.253 30.0933 102.96 28.9333 102.96 27.6C102.96 26.2133 103.28 24.9867 103.92 23.92C104.587 22.8533 105.453 21.96 106.52 21.24C107.613 20.4933 108.8 19.9333 110.08 19.56C111.387 19.16 112.68 18.96 113.96 18.96C115.533 18.96 116.827 19.2133 117.84 19.72C118.853 20.2267 119.613 20.88 120.12 21.68C120.627 22.48 120.88 23.3067 120.88 24.16C120.88 24.96 120.653 25.7333 120.2 26.48C119.773 27.2 119.133 27.7867 118.28 28.24C117.427 28.6933 116.373 28.92 115.12 28.92C115.2 28.5467 115.253 28.2133 115.28 27.92C115.307 27.6 115.32 27.32 115.32 27.08C115.32 25.7467 115.027 24.8 114.44 24.24C113.88 23.6533 113.253 23.36 112.56 23.36C111.893 23.36 111.253 23.6133 110.64 24.12C110.027 24.6 109.72 25.3867 109.72 26.48C109.72 27.4133 109.96 28.2133 110.44 28.88C110.947 29.5467 111.587 30.1333 112.36 30.64C113.16 31.1467 114 31.64 114.88 32.12C115.787 32.6 116.653 33.1333 117.48 33.72C118.333 34.28 119.04 34.9467 119.6 35.72C120.16 36.4933 120.44 37.4667 120.44 38.64C120.44 39.8667 120.107 41.0667 119.44 42.24C118.773 43.3867 117.867 44.4133 116.72 45.32C115.573 46.2 114.253 46.9067 112.76 47.44C111.293 47.9733 109.747 48.24 108.12 48.24ZM131.561 48.28C129.561 48.28 127.907 47.88 126.601 47.08C125.294 46.28 124.321 45.2267 123.681 43.92C123.067 42.5867 122.761 41.1733 122.761 39.68C122.761 38.2667 123.014 36.8533 123.521 35.44C124.054 34.0267 124.814 32.7467 125.801 31.6C126.814 30.4267 128.041 29.4933 129.481 28.8C130.921 28.08 132.574 27.72 134.441 27.72C136.441 27.72 138.081 28.1333 139.361 28.96C140.667 29.76 141.627 30.8267 142.241 32.16C142.881 33.4933 143.201 34.92 143.201 36.44C143.201 37.8267 142.947 39.2267 142.441 40.64C141.934 42.0267 141.174 43.3067 140.161 44.48C139.174 45.6267 137.961 46.5467 136.521 47.24C135.081 47.9333 133.427 48.28 131.561 48.28ZM132.641 44.88C133.361 44.88 133.961 44.5067 134.441 43.76C134.921 43.0133 135.281 42.0667 135.521 40.92C135.761 39.7467 135.881 38.56 135.881 37.36C135.881 36.2933 135.774 35.2933 135.561 34.36C135.374 33.4 135.081 32.6267 134.681 32.04C134.281 31.4267 133.761 31.12 133.121 31.12C132.427 31.12 131.827 31.4933 131.321 32.24C130.841 32.9867 130.481 33.9333 130.241 35.08C130.001 36.2267 129.881 37.4133 129.881 38.64C129.881 39.7067 129.974 40.72 130.161 41.68C130.374 42.6133 130.681 43.3867 131.081 44C131.481 44.5867 132.001 44.88 132.641 44.88ZM149.783 48.16C149.063 48.16 148.357 47.9867 147.663 47.64C146.997 47.2667 146.45 46.68 146.023 45.88C145.597 45.08 145.383 44.0533 145.383 42.8C145.383 41.68 145.53 40.3733 145.823 38.88C146.143 37.36 146.49 35.7867 146.863 34.16C147.263 32.5333 147.61 30.9467 147.903 29.4C148.197 27.8533 148.33 26.48 148.303 25.28C148.303 24.1333 148.17 23.32 147.903 22.84L147.863 22.72C148.157 21.8667 148.677 21.2 149.423 20.72C150.17 20.24 150.957 20 151.783 20C152.717 20 153.543 20.36 154.263 21.08C155.01 21.7733 155.383 22.9467 155.383 24.6C155.383 25.48 155.277 26.5333 155.063 27.76C154.85 28.96 154.597 30.2533 154.303 31.64C154.01 33 153.703 34.3467 153.383 35.68C153.09 37.0133 152.837 38.24 152.623 39.36C152.41 40.48 152.303 41.4 152.303 42.12C152.303 42.8667 152.41 43.3867 152.623 43.68C152.837 43.9467 153.077 44.08 153.343 44.08C153.637 44.08 153.917 43.9733 154.183 43.76C154.45 43.52 154.623 43.3067 154.703 43.12L155.023 43.2C154.997 44.16 154.717 45.0133 154.183 45.76C153.677 46.5067 153.023 47.0933 152.223 47.52C151.45 47.9467 150.637 48.16 149.783 48.16ZM171.815 48.2C170.881 48.2 170.068 47.8933 169.375 47.28C168.681 46.6667 168.335 45.6667 168.335 44.28C168.335 44.1467 168.335 44.0133 168.335 43.88C168.335 43.7467 168.348 43.6133 168.375 43.48C167.575 45.08 166.668 46.2667 165.655 47.04C164.668 47.7867 163.668 48.16 162.655 48.16C161.721 48.16 160.841 47.84 160.015 47.2C159.188 46.5333 158.521 45.56 158.015 44.28C157.508 43 157.255 41.4533 157.255 39.64C157.255 37.7733 157.508 36.1067 158.015 34.64C158.548 33.1733 159.241 31.9333 160.095 30.92C160.948 29.9067 161.881 29.1467 162.895 28.64C163.908 28.1067 164.895 27.84 165.855 27.84C166.921 27.84 167.881 28.1733 168.735 28.84C169.588 29.48 170.175 30.5067 170.495 31.92C170.575 31.4667 170.628 31.0533 170.655 30.68C170.708 30.3067 170.735 30.0533 170.735 29.92C170.761 29.2 171.121 28.6667 171.815 28.32C172.535 27.9733 173.321 27.8 174.175 27.8C174.921 27.8 175.628 27.9467 176.295 28.24C176.961 28.5333 177.415 29.0267 177.655 29.72L177.735 29.96C177.415 30.68 177.095 31.5467 176.775 32.56C176.455 33.5733 176.161 34.64 175.895 35.76C175.628 36.8533 175.415 37.9333 175.255 39C175.095 40.04 175.015 40.96 175.015 41.76C175.015 42.64 175.108 43.2533 175.295 43.6C175.481 43.92 175.708 44.08 175.975 44.08C176.428 44.08 176.841 43.76 177.215 43.12L177.535 43.28C177.535 44.1867 177.241 45.0133 176.655 45.76C176.068 46.5067 175.335 47.1067 174.455 47.56C173.575 47.9867 172.695 48.2 171.815 48.2ZM165.295 43.12C165.988 43.12 166.748 42.5067 167.575 41.28C168.428 40.0267 169.161 38.24 169.775 35.92C169.828 35.68 169.881 35.4533 169.935 35.24C169.988 35 170.028 34.7733 170.055 34.56C169.628 33.5733 169.175 32.88 168.695 32.48C168.241 32.0533 167.788 31.84 167.335 31.84C166.668 31.84 166.041 32.2 165.455 32.92C164.895 33.6133 164.428 34.4933 164.055 35.56C163.708 36.6267 163.535 37.6933 163.535 38.76C163.535 40.2267 163.695 41.32 164.015 42.04C164.361 42.76 164.788 43.12 165.295 43.12ZM184.513 48.16C183.553 48.16 182.699 47.7733 181.953 47C181.206 46.2 180.833 45.08 180.833 43.64C180.833 42.9467 180.913 42.16 181.073 41.28C181.233 40.4 181.419 39.5067 181.633 38.6C181.846 37.6667 182.033 36.8 182.193 36C182.353 35.1733 182.433 34.4933 182.433 33.96C182.433 33.4 182.326 32.96 182.113 32.64C181.926 32.2933 181.673 32.12 181.353 32.12C180.846 32.12 180.326 32.4667 179.793 33.16L179.553 33C179.526 32.5733 179.619 32.0667 179.833 31.48C180.046 30.8933 180.379 30.3333 180.833 29.8C181.286 29.24 181.859 28.7733 182.553 28.4C183.273 28.0267 184.113 27.84 185.073 27.84C186.486 27.84 187.513 28.2533 188.153 29.08C188.793 29.88 189.113 30.8533 189.113 32C189.113 32.1867 189.099 32.3867 189.073 32.6C189.073 32.7867 189.059 32.9733 189.033 33.16C189.993 31.4267 190.993 30.1067 192.033 29.2C193.099 28.2667 194.086 27.8 194.993 27.8C195.846 27.8 196.473 28.1333 196.873 28.8C197.273 29.4667 197.473 30.2667 197.473 31.2C197.473 32.0533 197.299 32.92 196.953 33.8C196.633 34.68 196.139 35.4133 195.473 36C194.833 36.56 194.046 36.8267 193.113 36.8L192.953 36.72C192.926 36.0267 192.699 35.48 192.273 35.08C191.846 34.68 191.366 34.48 190.833 34.48C190.113 34.48 189.433 34.84 188.793 35.56C188.179 36.28 187.873 37.32 187.873 38.68C187.873 39.5067 187.966 40.4 188.153 41.36C188.339 42.32 188.433 43.1333 188.433 43.8C188.433 44.6 188.246 45.3333 187.873 46C187.499 46.6667 187.019 47.2 186.433 47.6C185.846 47.9733 185.206 48.16 184.513 48.16ZM204.602 48.2C203.135 48.2 201.908 47.5867 200.922 46.36C199.935 45.1333 199.442 43.4533 199.442 41.32C199.442 40.2267 199.562 39 199.802 37.64C200.042 36.2533 200.322 34.8533 200.642 33.44C200.962 32.0267 201.242 30.7067 201.482 29.48C201.722 28.2267 201.842 27.1867 201.842 26.36C201.842 25.7733 201.762 25.32 201.602 25C201.442 24.6533 201.148 24.48 200.722 24.48C200.402 24.48 200.028 24.6267 199.602 24.92C199.175 25.2133 198.855 25.7867 198.642 26.64L198.242 26.48C198.242 24.1867 198.762 22.3733 199.802 21.04C200.868 19.7067 202.295 19.04 204.082 19.04C205.762 19.04 206.922 19.5867 207.562 20.68C208.228 21.7733 208.562 23.1467 208.562 24.8C208.562 26.0267 208.428 27.3333 208.162 28.72C207.922 30.1067 207.642 31.4933 207.322 32.88C207.002 34.24 206.708 35.5067 206.442 36.68C206.202 37.8533 206.082 38.8267 206.082 39.6C206.082 40.7467 206.375 41.32 206.962 41.32C207.308 41.32 207.775 41.08 208.362 40.6C208.948 40.0933 209.562 39.4133 210.202 38.56C210.868 37.68 211.508 36.6933 212.122 35.6C212.735 34.48 213.255 33.3067 213.682 32.08C213.628 31.4933 213.588 30.9333 213.562 30.4C213.535 29.84 213.522 29.3467 213.522 28.92C213.522 26.7867 213.722 25.0667 214.122 23.76C214.548 22.4533 215.082 21.4933 215.722 20.88C216.362 20.2667 217.015 19.96 217.682 19.96C218.615 19.96 219.455 20.48 220.202 21.52C220.948 22.5333 221.322 23.92 221.322 25.68C221.322 26.7733 221.122 28 220.722 29.36C220.322 30.6933 219.655 32.12 218.722 33.64C218.642 35.9333 218.895 37.7867 219.482 39.2C220.068 40.6133 220.802 41.32 221.682 41.32C222.242 41.32 222.842 41.04 223.482 40.48C224.148 39.8933 224.762 39.0933 225.322 38.08C225.882 37.04 226.335 35.84 226.682 34.48C227.055 33.12 227.242 31.6667 227.242 30.12C227.242 29.2133 227.175 28.2667 227.042 27.28C226.935 26.2933 226.788 25.3467 226.602 24.44C226.442 23.5333 226.268 22.7867 226.082 22.2C226.082 21.7467 226.268 21.2933 226.642 20.84C227.042 20.36 227.548 19.96 228.162 19.64C228.775 19.2933 229.402 19.12 230.042 19.12C230.682 19.12 231.295 19.3467 231.882 19.8C232.468 20.2533 232.948 21.0533 233.322 22.2C233.695 23.32 233.882 24.92 233.882 27C233.882 29.9067 233.508 32.64 232.762 35.2C232.015 37.7333 231.002 39.9733 229.722 41.92C228.468 43.8667 227.082 45.4 225.562 46.52C224.042 47.6133 222.495 48.16 220.922 48.16C219.535 48.16 218.388 47.7333 217.482 46.88C216.575 46.0267 215.868 44.88 215.362 43.44C214.855 42 214.495 40.4 214.282 38.64C213.322 40.9333 212.282 42.7867 211.162 44.2C210.042 45.5867 208.922 46.6 207.802 47.24C206.682 47.88 205.615 48.2 204.602 48.2ZM249.549 48.2C248.616 48.2 247.802 47.8933 247.109 47.28C246.416 46.6667 246.069 45.6667 246.069 44.28C246.069 44.1467 246.069 44.0133 246.069 43.88C246.069 43.7467 246.082 43.6133 246.109 43.48C245.309 45.08 244.402 46.2667 243.389 47.04C242.402 47.7867 241.402 48.16 240.389 48.16C239.456 48.16 238.576 47.84 237.749 47.2C236.922 46.5333 236.256 45.56 235.749 44.28C235.242 43 234.989 41.4533 234.989 39.64C234.989 37.7733 235.242 36.1067 235.749 34.64C236.282 33.1733 236.976 31.9333 237.829 30.92C238.682 29.9067 239.616 29.1467 240.629 28.64C241.642 28.1067 242.629 27.84 243.589 27.84C244.656 27.84 245.616 28.1733 246.469 28.84C247.322 29.48 247.909 30.5067 248.229 31.92C248.309 31.4667 248.362 31.0533 248.389 30.68C248.442 30.3067 248.469 30.0533 248.469 29.92C248.496 29.2 248.856 28.6667 249.549 28.32C250.269 27.9733 251.056 27.8 251.909 27.8C252.656 27.8 253.362 27.9467 254.029 28.24C254.696 28.5333 255.149 29.0267 255.389 29.72L255.469 29.96C255.149 30.68 254.829 31.5467 254.509 32.56C254.189 33.5733 253.896 34.64 253.629 35.76C253.362 36.8533 253.149 37.9333 252.989 39C252.829 40.04 252.749 40.96 252.749 41.76C252.749 42.64 252.842 43.2533 253.029 43.6C253.216 43.92 253.442 44.08 253.709 44.08C254.162 44.08 254.576 43.76 254.949 43.12L255.269 43.28C255.269 44.1867 254.976 45.0133 254.389 45.76C253.802 46.5067 253.069 47.1067 252.189 47.56C251.309 47.9867 250.429 48.2 249.549 48.2ZM243.029 43.12C243.722 43.12 244.482 42.5067 245.309 41.28C246.162 40.0267 246.896 38.24 247.509 35.92C247.562 35.68 247.616 35.4533 247.669 35.24C247.722 35 247.762 34.7733 247.789 34.56C247.362 33.5733 246.909 32.88 246.429 32.48C245.976 32.0533 245.522 31.84 245.069 31.84C244.402 31.84 243.776 32.2 243.189 32.92C242.629 33.6133 242.162 34.4933 241.789 35.56C241.442 36.6267 241.269 37.6933 241.269 38.76C241.269 40.2267 241.429 41.32 241.749 42.04C242.096 42.76 242.522 43.12 243.029 43.12ZM263.482 48.16C262.628 48.16 261.815 47.9733 261.042 47.6C260.295 47.2 259.682 46.5867 259.202 45.76C258.748 44.9333 258.522 43.88 258.522 42.6C258.522 41.9067 258.588 41 258.722 39.88C258.855 38.76 259.028 37.5333 259.242 36.2C259.482 34.8667 259.722 33.5333 259.962 32.2C259.428 32.2267 258.908 32.28 258.402 32.36C257.922 32.44 257.442 32.5333 256.962 32.64L256.882 32.36C257.415 31.72 257.975 31.1733 258.562 30.72C259.148 30.2667 259.762 29.8933 260.402 29.6C260.748 27.84 261.042 26.32 261.282 25.04C261.522 23.7333 261.642 22.96 261.642 22.72C261.642 22.2667 261.988 21.8933 262.682 21.6C263.402 21.3067 264.202 21.16 265.082 21.16C265.855 21.16 266.575 21.3067 267.242 21.6C267.935 21.8933 268.402 22.3867 268.642 23.08C268.482 23.24 268.255 23.84 267.962 24.88C267.668 25.8933 267.362 27.1333 267.042 28.6C267.548 28.6267 268.068 28.6533 268.602 28.68C269.135 28.7067 269.682 28.7467 270.242 28.8C270.295 28.96 270.335 29.1333 270.362 29.32C270.388 29.5067 270.402 29.7067 270.402 29.92C270.402 30.32 270.335 30.76 270.202 31.24C270.095 31.6933 269.962 32.1067 269.802 32.48C269.162 32.4267 268.562 32.3733 268.002 32.32C267.442 32.24 266.895 32.1867 266.362 32.16C266.148 33.3067 265.948 34.4533 265.762 35.6C265.602 36.7467 265.468 37.7867 265.362 38.72C265.282 39.6533 265.242 40.3867 265.242 40.92C265.242 42.04 265.442 42.7867 265.842 43.16C266.268 43.5333 266.775 43.72 267.362 43.72C267.895 43.72 268.375 43.6133 268.802 43.4C269.228 43.1867 269.535 42.9333 269.722 42.64L270.122 42.76C269.962 43.8533 269.535 44.8133 268.842 45.64C268.148 46.44 267.322 47.0667 266.362 47.52C265.402 47.9467 264.442 48.16 263.482 48.16ZM279.467 48.28C277.707 48.28 276.214 47.88 274.987 47.08C273.787 46.28 272.88 45.24 272.267 43.96C271.654 42.6533 271.347 41.2533 271.347 39.76C271.347 38.3467 271.614 36.9333 272.147 35.52C272.707 34.1067 273.52 32.8133 274.587 31.64C275.654 30.44 276.947 29.4933 278.467 28.8C280.014 28.08 281.787 27.72 283.787 27.72C285.76 27.72 287.227 28.12 288.187 28.92C289.147 29.6933 289.627 30.5467 289.627 31.48C289.627 32.4667 289.134 33.3733 288.147 34.2C287.16 35.0267 285.72 35.44 283.827 35.44C283.934 35.04 284.014 34.64 284.067 34.24C284.147 33.8133 284.187 33.4133 284.187 33.04C284.187 32.48 284.067 32.0133 283.827 31.64C283.587 31.24 283.16 31.04 282.547 31.04C281.987 31.04 281.387 31.2933 280.747 31.8C280.134 32.3067 279.6 33.0533 279.147 34.04C278.72 35.0267 278.507 36.24 278.507 37.68C278.507 39.0933 278.734 40.24 279.187 41.12C279.667 42 280.28 42.64 281.027 43.04C281.774 43.4133 282.56 43.6 283.387 43.6C284.48 43.6 285.534 43.32 286.547 42.76C287.56 42.1733 288.294 41.3733 288.747 40.36L289.147 40.52C289.147 41.9067 288.827 43.0933 288.187 44.08C287.574 45.04 286.774 45.84 285.787 46.48C284.8 47.0933 283.747 47.5467 282.627 47.84C281.507 48.1333 280.454 48.28 279.467 48.28ZM295.317 48.16C294.171 48.16 293.251 47.7733 292.557 47C291.864 46.2267 291.517 45.1733 291.517 43.84C291.517 43.12 291.611 42.1867 291.797 41.04C291.984 39.8667 292.211 38.5867 292.477 37.2C292.771 35.7867 293.051 34.36 293.317 32.92C293.584 31.4533 293.811 30.04 293.997 28.68C294.184 27.32 294.277 26.12 294.277 25.08C294.277 23.7733 294.104 22.8267 293.757 22.24V22C294.344 21.3333 294.984 20.84 295.677 20.52C296.371 20.2 297.051 20.04 297.717 20.04C298.731 20.04 299.597 20.4 300.317 21.12C301.037 21.84 301.397 22.92 301.397 24.36C301.397 25.1333 301.291 26.08 301.077 27.2C300.864 28.32 300.611 29.4933 300.317 30.72C300.024 31.9467 299.731 33.0933 299.437 34.16C299.944 33.1733 300.611 32.2 301.437 31.24C302.291 30.2533 303.251 29.44 304.317 28.8C305.411 28.16 306.544 27.84 307.717 27.84C309.051 27.84 309.944 28.2533 310.397 29.08C310.877 29.9067 311.117 30.9333 311.117 32.16C311.117 33.28 310.997 34.48 310.757 35.76C310.517 37.0133 310.277 38.2267 310.037 39.4C309.797 40.5467 309.677 41.5067 309.677 42.28C309.677 43.4 310.011 43.96 310.677 43.96C310.971 43.96 311.224 43.88 311.437 43.72C311.677 43.5333 311.851 43.3333 311.957 43.12L312.237 43.32C312.237 44.36 311.984 45.24 311.477 45.96C310.971 46.68 310.317 47.2267 309.517 47.6C308.744 47.9733 307.944 48.16 307.117 48.16C306.024 48.16 305.037 47.8 304.157 47.08C303.277 46.3333 302.837 45.1333 302.837 43.48C302.837 42.5467 302.957 41.5333 303.197 40.44C303.464 39.3467 303.717 38.2933 303.957 37.28C304.197 36.24 304.317 35.3733 304.317 34.68C304.317 33.7733 303.997 33.32 303.357 33.32C302.771 33.32 302.131 33.6133 301.437 34.2C300.744 34.7867 300.131 35.52 299.597 36.4C299.091 37.28 298.757 38.1467 298.597 39C298.544 39.2133 298.517 39.4667 298.517 39.76C298.517 40.4267 298.611 41.0667 298.797 41.68C299.011 42.2933 299.117 43.0133 299.117 43.84C299.117 45.0667 298.797 46.0933 298.157 46.92C297.517 47.7467 296.571 48.16 295.317 48.16Z" fill="white"/>
<path fill-rule="evenodd" clip-rule="evenodd" d="M45.5 10C45.5 8.61929 44.3807 7.5 43 7.5C41.6193 7.5 40.5 8.61929 40.5 10V23.009C38.9164 23.1814 37.377 23.5008 35.8955 23.953L33.9308 20.3656C33.2676 19.1547 31.7482 18.7106 30.5372 19.3738C29.3263 20.0371 28.8822 21.5564 29.5454 22.7674L31.2594 25.8969C29.4702 26.8686 27.812 28.0509 26.3181 29.4105L16.6299 19.7223C15.6536 18.746 14.0707 18.746 13.0944 19.7223C12.1181 20.6987 12.1181 22.2816 13.0944 23.2579L22.9664 33.1299C21.9264 34.5433 21.0306 36.0694 20.3006 37.6865L16.0281 36.2061C14.7235 35.7541 13.2994 36.4452 12.8474 37.7498C12.3954 39.0545 13.0865 40.4785 14.3911 40.9305L18.7093 42.4267C18.4812 43.4297 18.3129 44.4554 18.2085 45.5H3C1.61929 45.5 0.5 46.6193 0.5 48C0.5 49.3807 1.61929 50.5 3 50.5H84C85.3807 50.5 86.5 49.3807 86.5 48C86.5 46.6193 85.3807 45.5 84 45.5H68.3041C68.1783 44.2405 67.9595 43.0083 67.6549 41.8104L73.1684 40.1548C74.4908 39.7577 75.2409 38.3638 74.8438 37.0415C74.4468 35.7191 73.0529 34.969 71.7305 35.366L65.9404 37.1046C65.3146 35.8082 64.581 34.5735 63.7511 33.4124L73.9056 23.2579C74.8819 22.2816 74.8819 20.6987 73.9056 19.7223C72.9293 18.746 71.3464 18.746 70.3701 19.7223L60.4481 29.6443C58.985 28.276 57.3586 27.0802 55.6011 26.0894L57.6311 22.4495C58.3036 21.2437 57.8712 19.721 56.6653 19.0485C55.4595 18.376 53.9367 18.8083 53.2642 20.0142L51.0004 24.0734C49.2435 23.506 47.4021 23.1264 45.5 22.9584V10ZM41.9783 48.4024C42.0463 48.5574 42.1544 48.6971 42.3003 48.8047C42.4921 48.9462 42.7176 49.009 42.9384 48.999C43.2042 49.0106 43.474 48.9168 43.6797 48.7166C43.8151 48.5847 43.9052 48.4239 43.9497 48.2534L53.4664 35.3523C53.7942 34.9078 53.6997 34.2818 53.2553 33.9539C52.8108 33.6261 52.1848 33.7206 51.8569 34.165L42.8267 46.4067L35.559 38.9407C35.1737 38.545 34.5406 38.5365 34.1449 38.9217C33.7491 39.307 33.7406 39.9401 34.1259 40.3358L41.9783 48.4024Z" fill="white"/>
</svg>
